<svg width="33" height="31" viewBox="0 0 33 31" fill="none" xmlns="http://www.w3.org/2000/svg">
<path fill-rule="evenodd" clip-rule="evenodd" d="M32.3359 15.5C32.3359 24.0603 25.1724 31 16.3359 31C7.49938 31 0.335938 24.0603 0.335938 15.5C0.335938 6.93958 7.49938 0 16.3359 0C25.1724 0 32.3359 6.93958 32.3359 15.5ZM11.4873 10.803C11.956 10.349 12.7158 10.349 13.1844 10.803L16.3359 13.8559L19.4873 10.803C19.9559 10.349 20.7158 10.349 21.1844 10.803C21.6531 11.257 21.6531 11.993 21.1844 12.447L18.0329 15.5L21.1844 18.5529C21.6531 19.0069 21.6531 19.743 21.1844 20.197C20.7158 20.651 19.9559 20.651 19.4873 20.197L16.3359 17.1441L13.1844 20.197C12.7158 20.651 11.956 20.651 11.4874 20.197C11.0188 19.743 11.0188 19.0069 11.4874 18.553L14.6388 15.5L11.4873 12.447C11.0187 11.993 11.0187 11.2569 11.4873 10.803Z" fill="#1F2D5C"/>
</svg>
