<svg width="32" height="32" viewBox="0 0 32 32" fill="none" xmlns="http://www.w3.org/2000/svg">
<path d="M1 14.3332C1 8.04788 1 4.90522 2.9526 2.9526C4.90522 1 8.04788 1 14.3332 1H17.6665C23.9518 1 27.0946 1 29.0471 2.9526C30.9998 4.90522 30.9998 8.04788 30.9998 14.3332V17.6665C30.9998 23.9518 30.9998 27.0946 29.0471 29.0471C27.0946 30.9998 23.9518 30.9998 17.6665 30.9998H14.3332C8.04788 30.9998 4.90522 30.9998 2.9526 29.0471C1 27.0946 1 23.9518 1 17.6665V14.3332Z" stroke="white" stroke-width="2"/>
<path d="M13.2742 13.8599V14.9718H13.2459H13.2176V13.8599H13.2742ZM13.2176 28.6294V19.7131H13.2459H13.2742V28.6294H13.2176ZM13.4326 11.4599H13.385C13.6003 10.7029 14.0142 10.0155 14.5754 9.45688C14.0395 10.0125 13.6395 10.6952 13.4326 11.4599Z" fill="white" stroke="white" stroke-width="2.4"/>
</svg>
