<svg width="32" height="32" viewBox="0 0 32 32" fill="none" xmlns="http://www.w3.org/2000/svg">
<path d="M1 14.3332C1 8.04788 1 4.90522 2.9526 2.9526C4.90522 1 8.04788 1 14.3332 1H17.6665C23.9518 1 27.0946 1 29.0471 2.9526C30.9998 4.90522 30.9998 8.04788 30.9998 14.3332V17.6665C30.9998 23.9518 30.9998 27.0946 29.0471 29.0471C27.0946 30.9998 23.9518 30.9998 17.6665 30.9998H14.3332C8.04788 30.9998 4.90522 30.9998 2.9526 29.0471C1 27.0946 1 23.9518 1 17.6665V14.3332Z" stroke="white" stroke-width="2"/>
<path d="M13.0769 29.8871C13.0769 30.5017 13.5935 31 14.2308 31C14.868 31 15.3846 30.5017 15.3846 29.8871H13.0769ZM15.3846 18.0161C15.3846 17.4015 14.868 16.9032 14.2308 16.9032C13.5935 16.9032 13.0769 17.4015 13.0769 18.0161H15.3846ZM18.8462 10.2258C19.4834 10.2258 20 9.72754 20 9.1129C20 8.49827 19.4834 8 18.8462 8V10.2258ZM13.0769 18.0161C13.0769 18.6307 13.5935 19.129 14.2308 19.129C14.868 19.129 15.3846 18.6307 15.3846 18.0161H13.0769ZM14.2308 16.9032C13.5935 16.9032 13.0769 17.4015 13.0769 18.0161C13.0769 18.6307 13.5935 19.129 14.2308 19.129V16.9032ZM17.3077 19.129C17.9449 19.129 18.4615 18.6307 18.4615 18.0161C18.4615 17.4015 17.9449 16.9032 17.3077 16.9032V19.129ZM14.2308 19.129C14.868 19.129 15.3846 18.6307 15.3846 18.0161C15.3846 17.4015 14.868 16.9032 14.2308 16.9032V19.129ZM11.1538 16.9032C10.5166 16.9032 10 17.4015 10 18.0161C10 18.6307 10.5166 19.129 11.1538 19.129V16.9032ZM15.3846 29.8871V18.0161H13.0769V29.8871H15.3846ZM18.8462 8C15.6598 8 13.0769 10.4913 13.0769 13.5645H15.3846C15.3846 11.7206 16.9345 10.2258 18.8462 10.2258V8ZM13.0769 13.5645V18.0161H15.3846V13.5645H13.0769ZM14.2308 19.129H17.3077V16.9032H14.2308V19.129ZM14.2308 16.9032H11.1538V19.129H14.2308V16.9032Z" fill="white"/>
</svg>
