<svg width="37" height="38" viewBox="0 0 37 38" fill="none" xmlns="http://www.w3.org/2000/svg">
<path d="M33.8106 1.52305L37 7.9H0L3.1894 1.52305C3.34293 1.2158 3.57897 0.95736 3.87108 0.776672C4.16318 0.595984 4.49983 0.500183 4.8433 0.5H32.1567C32.5002 0.500183 32.8368 0.595984 33.1289 0.776672C33.421 0.95736 33.6571 1.2158 33.8106 1.52305ZM0 11.6H37V35.65C37 36.1407 36.8051 36.6112 36.4581 36.9581C36.1112 37.3051 35.6407 37.5 35.15 37.5H1.85C1.35935 37.5 0.888795 37.3051 0.541852 36.9581C0.19491 36.6112 0 36.1407 0 35.65V11.6ZM11.6421 24.9311C11.989 25.2779 12.4594 25.4728 12.95 25.4728C13.4406 25.4728 13.911 25.2779 14.2579 24.9311L16.65 22.5391V31.025C16.65 31.5157 16.8449 31.9862 17.1919 32.3331C17.5388 32.6801 18.0093 32.875 18.5 32.875C18.9907 32.875 19.4612 32.6801 19.8081 32.3331C20.1551 31.9862 20.35 31.5157 20.35 31.025V22.5391L22.7421 24.9311C23.091 25.2681 23.5583 25.4546 24.0433 25.4503C24.5284 25.4461 24.9924 25.2516 25.3354 24.9086C25.6784 24.5656 25.873 24.1016 25.8772 23.6165C25.8814 23.1314 25.6949 22.6641 25.358 22.3152L19.8079 16.7652C19.461 16.4184 18.9906 16.2235 18.5 16.2235C18.0094 16.2235 17.539 16.4184 17.1921 16.7652L11.6421 22.3152C11.2952 22.6621 11.1004 23.1326 11.1004 23.6231C11.1004 24.1137 11.2952 24.5842 11.6421 24.9311Z" fill="white"/>
</svg>
