<svg width="33" height="32" viewBox="0 0 33 32" fill="none" xmlns="http://www.w3.org/2000/svg">
<path d="M1.22559 14.3332C1.22559 8.04788 1.22559 4.90522 3.17819 2.9526C5.13081 1 8.27347 1 14.5588 1H17.8921C24.1774 1 27.3202 1 29.2727 2.9526C31.2254 4.90522 31.2254 8.04788 31.2254 14.3332V17.6665C31.2254 23.9518 31.2254 27.0946 29.2727 29.0471C27.3202 30.9998 24.1774 30.9998 17.8921 30.9998H14.5588C8.27347 30.9998 5.13081 30.9998 3.17819 29.0471C1.22559 27.0946 1.22559 23.9518 1.22559 17.6665V14.3332Z" stroke="white" stroke-width="2"/>
<path d="M25.3865 9.22598C25.3865 10.0099 24.7511 10.6453 23.9672 10.6453C23.1833 10.6453 22.5479 10.0099 22.5479 9.22598C22.5479 8.4421 23.1833 7.80664 23.9672 7.80664C24.7511 7.80664 25.3865 8.4421 25.3865 9.22598Z" fill="white" stroke="white" stroke-width="2"/>
<path d="M16.7088 21.3226C19.3811 21.3226 21.5475 19.1563 21.5475 16.4839C21.5475 13.8116 19.3811 11.6453 16.7088 11.6453C14.0365 11.6453 11.8701 13.8116 11.8701 16.4839C11.8701 19.1563 14.0365 21.3226 16.7088 21.3226Z" stroke="white" stroke-width="2"/>
</svg>
