<svg width="29" height="28" viewBox="0 0 29 28" fill="none" xmlns="http://www.w3.org/2000/svg">
<path fill-rule="evenodd" clip-rule="evenodd" d="M0.867188 0H5.97627L7.38399 6.19615H28.3424L25.355 20.1375H7.37589L3.5021 3.09807H0.867188V0ZM10.9359 27.8827C12.2192 27.8827 13.2595 26.8424 13.2595 25.5591C13.2595 24.2758 12.2192 23.2356 10.9359 23.2356C9.65267 23.2356 8.61237 24.2758 8.61237 25.5591C8.61237 26.8424 9.65267 27.8827 10.9359 27.8827ZM21.7792 27.8827C23.0625 27.8827 24.1027 26.8424 24.1027 25.5591C24.1027 24.2758 23.0625 23.2356 21.7792 23.2356C20.4959 23.2356 19.4556 24.2758 19.4556 25.5591C19.4556 26.8424 20.4959 27.8827 21.7792 27.8827Z" fill="white"/>
</svg>
