<svg width="29" height="29" viewBox="0 0 29 29" fill="none" xmlns="http://www.w3.org/2000/svg">
<path fill-rule="evenodd" clip-rule="evenodd" d="M0.867188 0.0629883H5.97627L7.38399 6.41598H28.3424L25.355 20.7102H7.37589L3.5021 3.23948H0.867188V0.0629883ZM10.9359 28.6514C12.2192 28.6514 13.2595 27.5848 13.2595 26.2691C13.2595 24.9533 12.2192 23.8867 10.9359 23.8867C9.65267 23.8867 8.61237 24.9533 8.61237 26.2691C8.61237 27.5848 9.65267 28.6514 10.9359 28.6514ZM21.7792 28.6514C23.0625 28.6514 24.1027 27.5848 24.1027 26.2691C24.1027 24.9533 23.0625 23.8867 21.7792 23.8867C20.4959 23.8867 19.4556 24.9533 19.4556 26.2691C19.4556 27.5848 20.4959 28.6514 21.7792 28.6514Z" fill="#1F2D5C"/>
</svg>
