<svg width="55" height="36" viewBox="0 0 55 36" fill="none" xmlns="http://www.w3.org/2000/svg">
<path d="M2 2.12964H33.7407V30.1362H16.9368" stroke="white" stroke-width="4" stroke-miterlimit="10" stroke-linecap="round" stroke-linejoin="round"/>
<path d="M43.0762 33.8704C45.1386 33.8704 46.8105 32.1985 46.8105 30.1362C46.8105 28.0738 45.1386 26.402 43.0762 26.402C41.0139 26.402 39.342 28.0738 39.342 30.1362C39.342 32.1985 41.0139 33.8704 43.0762 33.8704Z" stroke="white" stroke-width="4" stroke-miterlimit="10" stroke-linecap="round" stroke-linejoin="round"/>
<path d="M13.2025 33.8704C15.2648 33.8704 16.9367 32.1985 16.9367 30.1362C16.9367 28.0738 15.2648 26.402 13.2025 26.402C11.1401 26.402 9.46826 28.0738 9.46826 30.1362C9.46826 32.1985 11.1401 33.8704 13.2025 33.8704Z" stroke="white" stroke-width="4" stroke-miterlimit="10" stroke-linecap="round" stroke-linejoin="round"/>
<path d="M33.7407 30.1361V9.59802H44.9433L52.4117 18.9335V30.1361H46.8104" stroke="white" stroke-width="4" stroke-miterlimit="10" stroke-linecap="round" stroke-linejoin="round"/>
<path d="M5.73438 9.59802H22.5383" stroke="white" stroke-width="4" stroke-miterlimit="10" stroke-linecap="round" stroke-linejoin="round"/>
<path d="M2 17.0664H18.8039" stroke="white" stroke-width="4" stroke-miterlimit="10" stroke-linecap="round" stroke-linejoin="round"/>
</svg>
