<svg width="360" height="492" viewBox="0 0 360 492" fill="none" xmlns="http://www.w3.org/2000/svg">
<path d="M231.598 554.995C235.515 552.652 239.216 550.448 243.33 547.998C243.628 551.098 243.893 553.824 244.153 556.551C244.251 557.588 244.135 558.89 245.441 559.14C248.438 559.715 251.508 559.706 254.515 559.359C256.247 559.16 255.912 557.373 255.829 556.183C255.338 549.084 254.832 541.983 254.169 534.898C253.473 527.47 252.588 520.061 251.804 512.641C251.68 511.461 251.581 510.272 253.144 509.829C254.715 509.385 256.019 509.388 257.184 510.86C262.207 517.205 268.185 522.652 273.944 528.297C277.968 532.241 282.491 535.596 287.444 538.284C294.695 542.219 302.242 544.031 310.327 540.809C312.663 539.878 314.828 538.624 316.208 536.539C324.757 523.634 332.723 510.335 335.485 494.879C337.002 486.391 336.128 477.608 335.862 468.98C335.182 446.929 334.091 424.891 333.24 402.845C332.327 379.18 333.492 355.699 339.152 332.561C341.398 323.38 343.701 314.199 345.296 304.861C345.913 301.242 344.751 298.771 341.759 296.847C336.352 293.369 331.042 289.738 325.601 286.314C323.631 285.075 322.872 283.786 324.391 281.825C335.329 267.702 342.731 251.424 352.187 236.399C353.868 233.728 355.662 231.128 357.311 228.437C360.44 223.33 359.998 220.293 355.319 216.563C346.35 209.413 336.553 203.42 327.247 196.737C322.214 193.123 317.074 189.652 312.135 185.915C305.333 180.77 300.977 182.272 296.223 189.013C291.711 187.583 287.533 185.297 283.348 183.032C279.766 181.095 276.203 180.227 272.406 182.598C270.532 183.768 268.958 185.167 268.476 187.311C267.695 190.788 265.753 191.451 262.563 190.481C261.158 190.054 259.539 190.186 258.029 190.273C253.301 190.547 250.778 192.751 249.795 197.382C245.195 219.044 240.595 240.705 236.023 262.373C234.893 267.726 233.836 273.095 232.803 278.468C231.767 283.859 233.594 287.366 238.948 288.969C245.206 290.843 251.592 292.333 257.979 293.731C265.599 295.398 273.063 297.712 281.345 298.851C279.665 300.856 277.811 301.588 276.106 302.39C272.601 304.039 271.157 306.9 270.982 310.521C270.737 315.567 270.95 320.584 272.961 325.332C273.718 327.118 273.691 328.974 273.737 330.841C274.006 341.94 278.011 346.86 291.531 345.022C292.188 346.168 291.177 346.95 290.824 347.82C287.206 356.733 285.936 365.511 291.182 374.392C293.188 377.787 290.737 381.38 290.986 384.93C290.665 385.003 290.345 385.076 290.025 385.149C288.038 381.169 285.899 377.256 284.089 373.197C274.292 351.219 262.868 329.973 254.409 307.394C253.209 304.19 251.078 302.052 247.937 300.439C227.302 289.844 207.79 277.411 188.983 263.864C184.239 260.447 179.627 256.847 174.838 253.497C172.868 252.119 172.331 250.611 173.159 248.444C173.491 247.575 173.805 246.665 173.907 245.75C174.259 242.599 176.043 241.272 178.986 239.99C188.922 235.662 197.738 229.543 205.436 221.831C212.549 214.704 218.291 206.691 222.014 197.315C222.851 195.207 224.282 193.951 226.239 192.913C237.732 186.814 244.821 172.985 243.448 160.1C243.022 156.106 242.494 152.197 240.617 148.641C239.716 146.932 240.567 145.96 241.547 144.975C249.045 137.437 253.208 128.427 253.705 117.72C254.669 120.906 255.472 124.051 255.629 127.349C255.788 130.694 256.122 134.031 256.386 137.465C265.065 133.062 268.067 111.121 262.889 90.5881C265.481 90.0573 268.091 89.6212 270.648 88.9786C275.923 87.6533 280.857 85.5548 284.992 81.9282C286.166 80.8986 287.664 79.8808 287.013 77.539C273.198 76.6742 262.41 69.5365 252.11 60.1262C256.243 57.7933 260.062 56.0441 263.378 53.4697C267.085 50.5918 270.711 47.6501 273.417 43.7567C274.205 42.6235 275.358 41.4046 274.509 39.9634C273.687 38.5698 272.112 39.2685 270.954 39.4705C261.65 41.0933 252.527 40.39 243.616 37.3627C234.883 34.3959 226.264 31.1239 217.81 26.7143C223.173 20.9483 230.409 16.8007 232.426 7.66343C227.866 8.60182 224.166 9.3868 220.456 10.1221C208.803 12.4317 197.195 11.5611 185.603 9.59999C171.806 7.26579 158.002 6.19115 144.157 9.28176C138.122 10.629 132.457 13.0372 125.857 15.8405C128.806 12.0622 131.831 9.9242 134.827 7.77199C136.344 6.68203 137.992 5.77537 139.538 4.72298C140.516 4.05701 141.521 3.23836 141.118 1.8831C140.698 0.467596 139.339 0.428018 138.198 0.538459C134.707 0.876566 131.219 1.28472 127.746 1.7791C110.761 4.19664 95.8265 18.4324 93.7211 34.1638C93.6901 34.3953 93.63 34.6232 93.6048 34.8551C93.0231 40.23 93.0237 40.2099 87.2703 40.1971C84.4666 40.1908 81.6428 40.0426 78.9006 40.8445C77.5733 41.2327 76.1362 41.4695 75.4937 42.9966C75.8748 44.4719 77.2155 44.3941 78.2745 44.6963C79.3737 45.0099 80.5892 44.9905 81.9019 46.3655C58.29 62.6896 53.2457 85.595 58.9907 112.114C60.544 119.285 63.84 125.316 66.7368 126.749C68.2389 125.652 67.2922 123.589 68.5993 122.165C70.4743 125.437 71.0454 129.204 73.0434 132.322C73.5869 133.171 72.8525 133.847 72.338 134.482C65.3123 143.147 64.9373 153.091 68.1357 162.974C72.8564 177.56 83.5523 186.023 98.4715 189.052C101.466 189.66 102.577 190.699 102.429 193.838C101.606 211.216 100.951 228.602 100.306 245.988C100.246 247.624 99.5216 248.54 98.235 249.329C95.1321 251.233 92.2904 253.492 89.7253 256.067C78.1889 267.648 63.7774 275.136 50.2112 283.828C36.3303 292.722 22.3184 301.413 9.01382 311.181C5.75931 313.571 3.93771 316.528 3.33603 320.422C0.848846 336.517 0.409363 352.702 1.0668 368.946C1.43997 378.166 1.54398 387.398 2.01965 396.612C2.9343 414.329 4.05252 432.033 6.14401 449.663C6.64404 453.877 8.77124 456.572 12.7982 457.738C17.9593 459.232 23.1096 460.922 28.5751 460.699C30.8883 460.605 31.7057 461.632 32.4739 463.706C38.8871 481.029 40.9911 499.268 44.0012 517.301C46.131 530.06 47.8642 542.888 49.5784 555.712C49.9653 558.606 51.2624 559.381 53.9286 559.377C75.9279 559.348 97.9274 559.425 119.927 559.402C123.202 559.398 126.381 558.725 129.528 557.639C146.756 551.69 164.276 546.576 181.14 539.591C185.003 537.992 188.797 536.227 192.705 534.709C180.005 543.041 165.044 546.862 151.231 554.827C153.75 555.812 155.323 555.351 156.737 554.731C163.393 551.815 170.304 549.624 177.228 547.491C188.992 543.866 199.068 536.894 209.831 531.291C218.964 526.537 227.686 521.066 236.487 515.735C237.569 515.079 238.648 514.323 239.997 514.303C242.454 518.043 241.954 521.834 238.552 524.738C232.179 530.177 224.944 534.224 217.324 537.608C203.11 543.92 188.872 550.177 174.656 556.485C173.443 557.024 171.995 557.306 170.925 559.222C174.94 559.684 178.386 558.88 181.743 557.924C192.142 554.962 201.792 550.221 211.449 545.447C220.95 540.749 229.78 535.138 237.718 528.112C238.82 527.137 239.886 525.979 241.892 525.621C242.194 530.651 242.671 535.591 243.187 540.517C243.407 542.616 241.175 543.742 239.575 544.934C233.704 549.309 227.857 553.716 221.554 558.447C226.073 559.717 228.456 556.633 231.598 554.995ZM224.282 50.7819C219.77 48.3119 216.033 44.7351 211.527 42.1862C201.967 36.7778 192.291 31.6076 182.452 26.737C173.55 22.3301 164.321 19.2612 154.167 19.9926C146.097 20.574 138.145 21.6618 130.525 24.5684C127.233 25.8242 123.875 26.9095 120.547 28.0722C126.976 23.1185 134.31 20.0185 142.03 18.3869C154.948 15.6569 168.036 16.0465 181.085 17.9309C189.971 19.2142 198.834 20.9432 207.897 19.6534C208.735 19.5341 209.748 19.2597 210.641 20.1841C205.413 24.8366 198.322 23.2165 192.345 25.4492C213.247 32.0766 231.212 45.62 253.245 48.5443C239.235 52.0886 227.161 45.4043 214.482 41.5938C217.103 45.7468 221.699 47.462 225.228 51.0236C228.834 52.9812 232.17 55.3519 235.362 57.9033C242.024 63.2292 248.514 68.7747 255.273 73.9722C258.231 76.2466 261.676 77.8886 265.272 80.0401C259.796 80.0257 253.919 78.3258 249.317 74.2673C241.003 66.9359 233.094 59.147 225.026 51.5384C224.871 51.393 224.843 51.1146 224.282 50.7819ZM59.8155 321.221C67.2304 335.586 73.4239 350.452 78.4611 365.81C76.9795 364.351 75.9501 362.663 74.7606 361.096C66.0514 349.627 57.0693 338.453 44.9559 330.212C37.3233 325.02 28.9616 322.035 19.9078 320.844C18.0407 320.598 15.82 319.913 14.1983 321.928C15.3913 323.557 17.0458 323.549 18.4308 323.973C31.6159 328.007 42.6483 335.372 52.1644 345.239C61.0656 354.468 67.9128 365.22 75.3396 375.562C79.9753 382.018 84.9634 388.096 85.874 396.448C86.4781 401.989 88.9828 407.118 90.6947 413.421C63.136 410.198 37.5517 414.542 14.0476 428.333C13.0885 427.218 13.0482 426.285 12.9643 425.356C11.1588 405.351 10.4318 385.29 10.0725 365.221C9.82587 351.446 10.0367 337.666 11.2244 323.912C11.5028 320.687 13.1037 318.995 15.6216 317.369C33.7893 305.636 51.7278 293.552 70.0864 282.11C76.2068 278.296 82.1307 274.167 88.0178 270.266C89.3585 270.968 89.5514 272.087 90.0835 272.964C90.628 273.862 91.1228 274.79 91.6798 275.679C101.191 290.87 112.887 304.166 126.84 315.402C138.643 324.906 151.469 332.608 166.974 334.024C175.409 334.795 182.701 332.402 187.931 324.786C193.779 316.273 195.732 306.966 195.645 296.934C195.593 290.892 195.077 284.914 193.284 279.125C194.721 278.769 195.344 279.397 195.992 279.852C211.321 290.606 227.014 300.734 244.343 308.067C245.444 308.533 245.85 309.485 246.127 310.518C247.711 316.408 250.095 321.99 252.673 327.497C263.42 350.446 273.094 373.907 285.445 396.092C285.885 396.882 286.567 397.654 285.63 399.32C270.306 401.399 256.759 409.026 243.399 417.904C243.542 412.889 243.458 408.569 247.818 405.985C246.295 404.608 245.196 406.462 243.807 405.298C243.947 400.125 242.64 394.374 244.867 389.336C248.92 380.167 252.548 370.747 257.991 362.233C258.368 361.643 258.784 361.031 257.549 359.719C251.977 363.25 249.971 369.622 246.192 374.616C247.942 362.733 250.777 351.093 251.435 339.143C249.405 338.696 248.863 339.919 248.426 341.14C247.797 342.897 247.207 344.673 246.718 346.473C245.479 351.027 244.306 355.598 243.106 360.162C242.223 345.482 240.671 331.091 236.924 316.449C234.359 318.339 235.08 320.117 235.098 321.621C235.314 339.734 234.706 357.84 234.643 375.946C234.55 403.181 232.852 430.353 232.244 457.563C232.177 460.553 231.242 463.276 230.305 466.051C229.628 468.059 228.489 469.089 226.343 469.397C217.328 470.688 208.299 471.921 199.336 473.519C189.311 475.307 180.367 472.932 171.29 468.576C161.09 463.681 152.098 457.003 142.481 451.266C136.711 447.824 130.791 444.744 124.172 443.05C131.381 448.885 139.014 454.039 147.201 458.46C144.17 458.683 141.481 457.554 138.714 456.854C134.182 455.706 129.668 454.486 125.142 453.316C123.07 452.78 121.333 453.337 120.475 455.347C119.734 457.084 120.815 458.325 122.293 459.017C131.279 463.227 140.403 467.064 150.166 469.166C155.882 470.396 161.572 471.744 167.273 473.04C167.209 473.425 167.146 473.811 167.082 474.197C157.266 473.408 147.076 476.925 137.725 471.096C134.431 476.221 129.164 473.88 124.755 474.179C120.012 474.5 115.361 475.465 110.619 476.153C106.219 461.785 101.874 447.868 98.132 433.77C97.6231 431.852 98.1057 430.749 99.856 429.805C103.089 428.062 103.948 425.341 102.977 421.786C101.188 415.242 99.1016 408.813 96.3759 402.594C95.1571 399.814 94.1026 397.062 94.3712 393.849C95.6485 378.564 95.445 363.269 94.1045 348.001C93.8547 345.156 93.9102 342.04 91.2794 339.605C88.9135 350.274 89.055 361.102 88.8204 371.916C85.7639 360.558 81.0582 349.875 76.2932 339.218C73.222 332.349 69.5139 325.875 64.0931 320.539C62.2313 318.707 60.1494 317.21 56.6169 316.929C57.904 318.631 58.7235 319.716 59.8155 321.221ZM86.4032 491.851C86.9631 493.947 88.5558 493.744 90.0601 493.348C92.8827 492.604 95.7357 491.896 98.4566 490.86C115.812 484.252 133.866 482.617 152.231 483.233C176.811 484.059 201.309 483.908 225.475 478.373C230.314 477.265 234.059 476.125 236.923 470.904C244.631 456.856 257.034 447.468 271.343 440.552C272.447 440.019 273.544 439.153 275.32 440.026C273.827 444.159 272.473 448.352 270.812 452.421C265.26 466.019 262.103 480.002 263.809 494.769C264.125 497.507 262.976 498.505 260.495 498.992C252.812 500.501 245.157 502.165 237.699 504.594C211.583 513.1 185.184 520.689 158.558 527.363C135.916 533.038 112.969 537.515 89.8252 540.754C77.0729 542.539 74.9515 541.355 69.2509 529.694C58.6118 507.93 51.6907 484.681 42.5016 462.335C41.9015 460.875 42.2349 459.836 43.4552 458.659C56.1716 446.397 71.9036 439.806 88.7748 434.505C93.5374 449.405 96.8115 464.81 102.977 479.389C97.0181 482.898 91.1909 486.335 86.4032 491.851ZM226.598 128.248C226.25 131.966 225.962 135.69 225.542 139.399C224.414 149.369 222.072 159.125 220.181 168.959C218.487 177.775 217.048 186.719 213.449 194.989C205.951 212.219 192.634 223.698 175.962 231.68C169.031 234.998 161.883 235.391 154.885 232.432C135.214 224.115 121.054 209.835 111.282 191.073C109.314 187.295 107.882 183.239 106.153 179.194C104.305 179.888 103.293 181.389 101.188 181.021C86.9905 178.536 77 168.802 74.9333 154.584C73.936 147.723 75.2268 141.279 80.8829 136.423C84.8997 132.975 88.4861 132.988 92.4197 136.59C95.2628 139.192 96.7247 142.679 98.1257 146.139C100.516 152.041 103.5 157.552 107.941 162.189C108.796 163.081 109.444 164.329 111.453 164.027C108.178 150.444 108.928 136.866 110.645 122.353C113.563 125.846 113.497 130.004 117.475 132.691C116.733 118.874 122.037 107.155 123.922 94.6258C129.596 100.443 134.243 106.798 142.838 108.541C142.639 105.619 140.409 104.298 140.155 101.902C146.757 109.185 154.729 114.526 163.431 118.83C172.186 123.16 181.213 126.489 191.345 126.185C186.88 121.283 181.887 117.1 177.881 111.907C186.242 116.052 195.338 117.813 204.169 120.981C199.177 123.528 194.572 125.912 193.746 133.251C204.341 128.341 214.006 131.388 223.714 134.898C223.917 131.369 222.686 129.05 220.983 127.736C215.604 123.586 212.49 117.416 207.326 113.138C205.335 111.489 203.273 109.91 201.218 106.921C207.211 110.025 212.252 112.701 217.686 114.599C226.63 117.722 226.589 117.839 226.598 128.248ZM302.608 377.454C297.726 372.408 295.796 366.375 296.813 359.471C297.605 354.097 299.392 349.006 302.392 344.473C303.729 342.454 303.488 340.891 302.386 339.024C299.771 334.596 295.624 332.295 290.927 330.939C287.732 330.017 285.837 332.146 287.114 335.215C288.205 337.835 286.675 338.094 284.913 338.145C282.81 338.206 281.828 336.887 281.469 334.902C280.541 329.775 282.514 325.919 286.255 322.494C289.794 319.254 293.45 318.019 298.086 319.801C303.312 321.81 308.487 324.086 314.166 324.568C315.368 324.67 316.964 325.114 317.426 323.4C317.852 321.822 316.524 321.154 315.374 320.548C310.822 318.15 306.03 316.209 301.494 313.827C295.301 310.574 289.916 311.361 284.473 315.281C282.775 316.503 281.242 318.322 278.769 318.36C277.36 315.017 278.93 312.754 281.195 310.907C285.63 307.289 290.171 303.801 294.69 300.288C296.593 298.809 298.575 299.141 300.639 300.053C306.198 302.51 311.764 304.952 317.376 307.282C321.746 309.096 326.236 310.527 331.224 310.769C330.835 308.913 329.561 308.398 328.594 307.638C321.552 302.108 313.482 298.384 305.558 294.36C302.178 292.644 298.914 291.715 295.161 292.106C289.696 292.675 285.273 289.922 280.866 287.279C280.196 286.877 279.688 286.109 280.456 284.54C288.841 285.12 297.482 282.83 306.193 284.683C307.094 284.875 308.009 285.231 308.791 285.715C317.435 291.066 326.044 296.477 334.69 301.826C336.706 303.074 336.974 304.599 336.524 306.879C335.926 309.906 334.081 312.431 333.483 315.363C330.315 330.898 327.71 346.533 325.729 362.263C324.354 373.18 324.679 384.145 324.82 395.13C325.051 413.232 324.725 431.352 325.831 449.424C326.409 458.871 326.137 468.33 326.911 477.769C327.592 486.078 327.132 494.396 323.815 502.193C320.293 510.47 316.262 518.52 311.678 526.275C308.593 531.495 306.043 532.697 300.005 531.433C288.73 529.072 281.422 521.67 277.017 511.637C270.864 497.626 271.771 482.875 275.914 468.718C284.007 441.061 293.72 413.875 299.743 385.623C299.908 384.851 300.061 383.978 301.381 383.594C302.731 384.116 304.361 384.731 305.979 385.376C307.014 385.788 308.056 386.091 308.775 384.931C309.521 383.728 308.707 382.967 307.821 382.314C306.03 380.994 304.246 379.67 302.608 377.454ZM153.874 305.764C147.853 302.256 141.567 299.174 135.818 294.701C142.671 295.224 148.356 298.556 154.386 300.725C155.172 298.713 154.38 297.54 153.581 296.384C150.86 292.445 147.233 289.897 142.411 289.244C138.705 288.741 134.998 288.222 131.279 287.834C129.55 287.653 128.118 287.045 126.956 285.793C119.957 278.248 113.108 270.58 107.646 261.803C106.977 260.728 106.36 259.721 106.635 258.245C108.755 246.859 109.388 235.328 109.843 223.782C109.89 222.589 109.498 221.214 110.755 220.296C111.951 220.885 112.345 222.037 112.949 223.007C120.437 235.036 129.805 245.367 141.06 253.978C147.399 258.828 154.233 262.025 162.526 259.955C163.076 259.817 163.688 259.714 164.396 260.499C164.047 265.564 163.695 270.881 163.31 276.197C162.928 281.476 163.546 282.013 168.931 280.855C168.737 278.332 168.764 275.811 170.366 273.544C171.932 274.544 172.655 276.016 173.383 277.464C177.071 284.793 176.894 285.303 170.308 289.758C168.481 290.994 166.297 292.116 166.02 294.813C168.548 295.871 170.523 294.504 172.619 293.973C175.11 293.342 176.497 294.009 176.097 296.901C175.614 300.393 174.882 303.825 173.153 306.916C171.54 309.802 169.293 311.268 165.632 310.531C161.535 309.705 157.811 308.234 153.874 305.764ZM271.111 250.414C272.682 251.682 274.253 252.951 276.425 254.704C268.603 254.708 262.785 256.973 259.495 264.031C256.035 261.344 253.973 258.184 253.889 254.568C253.613 242.831 255.573 231.968 265.552 223.792C275.711 215.469 294.797 213.84 303.802 227.955C310.907 239.093 308.798 257.489 298.742 266.148C297.267 267.418 295.812 268.823 293.454 269.208C292.157 266.648 290.816 264.09 289.557 261.492C288.186 258.665 285.365 257.54 282.556 255.89C285.06 255.209 287.094 254.692 289.106 254.101C295.22 252.305 298.291 247.868 299.149 241.876C300.03 235.729 299.194 229.793 294.082 225.597C287.297 220.027 275.743 220.703 270.23 226.638C264.327 232.993 264.546 243.178 271.111 250.414ZM146.157 319.099C124.398 306.196 108.041 288.123 95.4724 266.393C93.8022 263.506 95.2006 262.482 97.6603 261.628C98.0575 262.125 98.4032 262.451 98.6231 262.847C106.371 276.803 116.66 288.653 128.635 299.126C138.338 307.612 148.979 314.508 161.515 317.965C171.584 320.741 178.762 316.847 182.13 306.995C185.983 295.725 185.658 284.515 181.164 273.45C180.766 272.472 179.894 271.534 180.497 270.36C181.39 270.373 181.799 270.829 182.04 271.346C188.437 285.036 190.636 299.238 186.206 313.884C183.592 322.529 174.978 329.802 163.214 325.898C157.556 324.02 151.807 322.393 146.157 319.099ZM20.9643 432.653C24.1551 431.216 27.2923 429.643 30.5456 428.364C48.7893 421.195 67.9853 418.762 87.3342 417.161C91.8996 416.783 92.2755 417.193 92.7415 421.874C65.6552 424.806 38.9324 429.026 15.3796 444.297C13.2455 436.505 13.2694 436.452 20.1851 433.052C20.2899 433.001 20.3915 432.943 20.9643 432.653ZM254.446 211.827C254.928 208.952 255.372 206.07 255.901 203.203C256.847 198.077 258.765 196.999 263.735 198.265C275.384 201.232 287.079 204.019 298.73 206.979C302.846 208.024 307.159 208.481 311.034 210.355C310.548 212.657 309.296 212.52 307.764 212.143C299.72 210.159 291.684 208.131 283.598 206.327C277.353 204.933 271.15 203.326 264.939 201.829C262.067 201.137 259.814 200.061 257.905 202.762C256.084 205.339 256.036 208.009 259.256 210.304C257.212 211.004 256.764 212.492 256.426 214.11C254.949 221.184 253.541 228.275 251.891 235.309C249.13 247.087 248.609 259.417 243.269 270.628C244.703 271.331 246.127 269.845 247.629 270.468C242.618 272.944 241.029 275.121 242.581 278.389C244.646 282.735 247.665 282.754 250.871 279.132C250.761 280.356 249.544 281.08 250.142 282.25C257.161 283.495 264.149 284.774 271.154 285.952C273.198 286.296 274.263 287.186 274.083 289.218C273.255 289.844 272.55 289.634 271.88 289.477C262.908 287.368 253.91 285.362 244.983 283.075C240.73 281.985 239.626 279.386 240.829 274.959C241.591 272.154 242.401 269.351 242.948 266.502C246.42 248.406 250.283 230.393 254.446 211.827ZM311.718 231.731C311.376 232.254 311.544 233.111 310.565 233.364C306.309 223.29 299.503 216.109 288.206 214.303C277.224 212.547 267.916 216.362 259.601 224.072C258.788 220.198 259.497 217.372 260.106 214.538C260.27 213.775 260.696 213.265 261.469 213.136C264.559 212.621 266.412 210.626 267.576 207.917C268.145 206.594 268.834 206.259 270.279 206.613C281.948 209.471 293.631 212.27 305.327 215.015C307.437 215.51 308.754 216.215 308.214 218.759C307.825 220.592 308.536 222.411 310.032 223.436C313.155 225.574 313.358 228.19 311.718 231.731ZM331.015 244.376C326.317 251.996 322.153 259.914 317.874 267.809C320.547 251.297 326.313 235.584 329.216 219.242C332.07 219.485 332.587 220.657 332.436 222.656C332.198 225.803 333.013 228.679 335.512 230.859C337.363 232.473 337.225 234.237 336.013 236.163C334.397 238.731 332.844 241.337 331.015 244.376ZM304.741 193.345C303.53 191.618 304.595 191.262 305.998 191.53C306.864 191.695 307.623 192.4 308.437 192.851C313.779 195.815 318.194 200.023 323.062 203.621C330.761 209.311 338.788 214.558 346.61 220.085C351.027 223.205 351.112 224.13 348.267 228.595C341.8 238.744 335.725 249.115 330.253 259.842C327.718 264.811 324.415 269.308 320.815 273.615C322.963 268.743 325.286 263.971 327.82 259.313C333.566 248.755 339.395 238.241 345.239 227.736C346.607 225.276 347.176 223.018 344.875 220.758C342.334 218.263 339.973 218.842 337.692 221.358C337.138 219.471 339.143 218.282 338.126 216.657C336.508 215.816 334.721 216.298 333.001 216.243C331.384 216.191 330.269 215.851 330.3 213.913C330.371 209.495 327.705 207.112 323.911 205.703C321.794 204.917 319.862 203.817 318.187 202.363C314.187 198.891 309.733 196.126 304.741 193.345ZM251.044 420.476C261.738 413.863 272.938 408.457 285.463 405.422C285.632 409.053 284.867 411.319 281.49 411.98C280.367 412.2 279.313 412.804 278.243 413.267C266.027 418.557 254.3 424.709 243.954 433.049C242.326 426.894 244.861 423.102 250.305 420.914C250.411 420.871 250.504 420.794 251.044 420.476ZM254.489 276.838C254.828 274.022 254.137 271.586 252.166 269.435C248.792 265.756 248.791 263.735 251.931 259.636C254.761 263.786 257.247 268.128 261.262 271.371C265.2 274.551 269.753 276.47 274.277 278.108C273.99 281.329 272.663 282.616 269.829 282.131C265.469 281.383 261.098 280.7 256.732 279.984C255.29 279.747 254.346 279.058 254.489 276.838ZM320.518 219.759C320.798 217.632 320.965 215.419 319.102 213.938C316.526 211.89 314.014 213.463 311.378 214.953C312.777 210.927 313.846 210.35 317.157 211.436C321.191 212.76 322.573 214.885 321.938 219.104C321.697 220.706 321.104 222.252 320.725 223.836C316.819 240.146 311.793 256.187 308.903 272.741C308.56 274.708 308.083 276.396 305.06 275.805C309.174 258.465 313.249 241.292 317.33 224.093C316.154 223.607 315.202 223.214 314.25 222.82C316.771 222.837 318.744 222.093 320.518 219.759ZM212.726 57.3175C213.079 57.792 214.062 57.7835 213.892 58.6377C195.619 48.5713 175.731 43.3015 155.615 38.6833C176.383 39.1721 195.193 45.6253 212.726 57.3175ZM227.413 181.721C225.595 181.802 226.443 180.516 226.581 179.856C228.147 172.36 229.739 164.869 231.441 157.403C231.696 156.286 231.667 154.808 233.113 154.218C237.965 161.092 235.484 173.626 227.413 181.721ZM76.0313 66.09C71.2396 70.0667 69.0273 75.6928 66.423 81.0541C70.5641 69.0651 76.5933 58.5321 88.6672 52.6449C82.5239 60.4085 79.0663 69.3354 76.8366 78.8511C77.1029 75.2332 77.6002 71.6693 78.0267 68.0969C78.1617 66.9659 78.9372 65.2293 76.0313 66.09ZM258.239 105.234C258.233 105.467 258.269 105.712 258.207 105.929C258.158 106.1 257.987 106.236 257.76 106.531C254.862 100.86 252.155 95.1977 249.115 89.7191C246.059 84.2098 241.797 79.5008 238.148 74.3854C249.837 81.2471 256.016 91.7188 258.239 105.234ZM284.767 195.923C281.584 194.962 278.138 194.821 275.199 193.092C275.459 189.773 276.802 188.71 279.834 190.098C282.915 191.509 286.068 192.765 289.21 194.036C294.261 196.08 299.329 198.082 304.389 200.101C297.669 200.14 291.631 197.531 284.767 195.923ZM161.568 70.8609C159.502 69.7851 157.403 68.7669 155.379 67.6172C153.355 66.4675 151.371 65.2374 149.434 63.9478C147.622 62.7424 145.894 61.4127 144.129 60.1377C156.018 64.5807 177.672 77.2723 181.644 81.5585C174.937 77.9739 168.489 74.5283 161.568 70.8609ZM267.612 434.805C262.313 437.056 257.389 440.025 252.419 442.911C260.056 435.537 269.12 430.621 279.067 426.647C279.096 429.957 277.571 431.421 275.054 432.191C272.711 432.909 270.412 433.77 267.612 434.805ZM301.268 273.521C298.882 276.767 295.652 277.448 290.521 275.565C295.171 273.587 298.928 270.721 302.669 267.201C302.81 269.623 302.075 271.319 301.268 273.521ZM109.353 23.658C108.288 24.9417 107.222 26.2254 106.157 27.5091C108.522 22.534 111.699 18.2798 116.396 15.3586C114.633 18.417 112.032 20.7456 109.353 23.658ZM165.036 54.7821C169.135 56.4408 173.233 58.0995 177.331 59.7582C171.355 58.047 165.537 56.0056 159.855 53.5251C161.406 53.9 162.958 54.2749 165.036 54.7821ZM183.976 38.4328C183.544 38.2747 183.112 38.1166 182.681 37.9585C186.344 38.2484 189.859 39.0725 193.083 40.9793C190.189 40.1868 187.294 39.3943 183.976 38.4328ZM195.294 88.269C196.08 88.6783 196.865 89.0877 197.651 89.497C197.564 89.6661 197.476 89.8352 197.389 90.0043C194.415 88.5118 191.441 87.0194 188.467 85.5269C188.545 85.3672 188.623 85.2076 188.702 85.048C190.755 86.0522 192.808 87.0565 195.294 88.269ZM87.3161 68.2159C87.9039 66.9643 88.4916 65.7127 89.0794 64.461C88.7556 67.4749 87.6808 70.0775 85.5103 72.1109C86.041 70.96 86.5717 69.8091 87.3161 68.2159Z" fill="#1F2E5C"/>
<path d="M43.0297 371.48C39.1837 370.689 35.6484 369.784 31.7999 369.63C34.3777 373.474 76.8823 390.914 81.2178 389.994C80.7445 387.411 78.1217 387.624 76.6327 386.432C78.3255 381.496 60.1461 360.787 52.1203 359.022C56.5956 367.281 64.2064 372.386 70.4829 379.532C63.4951 377.867 57.2707 376.837 51.5729 373.973C48.9926 372.676 46.165 372.026 43.0297 371.48Z" fill="#1F2E5C"/>
<path d="M157.477 400.14C152.313 398.67 147.43 397.256 142.548 395.843C142.453 396.152 142.358 396.46 142.263 396.769C163.29 407.407 184.253 418.222 208.154 421.036C191.831 412.896 175.462 404.887 157.477 400.14Z" fill="#1F2E5C"/>
<path d="M160.724 347.344C166.147 349.93 171.116 352.998 177.147 353.208C168.682 347.774 159.769 343.341 150.016 340.611C152.969 343.714 156.802 345.356 160.724 347.344Z" fill="#1F2E5C"/>
<path d="M171.913 341.037C170.653 340.863 169.651 340.75 168.426 340.611C171.578 344.145 184.052 346.902 187.805 344.626C182.369 343.176 177.092 342.757 171.913 341.037Z" fill="#1F2E5C"/>
<path d="M157.201 196.869C164.196 199.36 171.46 200.877 178.819 202.178C177.282 206.515 171.685 209.167 165.165 209.015C156.727 208.818 145.045 200.313 142.562 191.992C147.532 193.646 152.104 195.168 157.201 196.869Z" fill="#1F2E5C"/>
<path d="M131.051 140.532C130.774 144.078 130.724 147.291 132.169 150.33C134.625 155.491 138.781 156.009 142.199 151.494C144.92 147.899 145.488 143.66 145.338 139.259C145.282 137.61 145.116 135.965 144.995 134.254C147.07 133.994 148.12 135.301 149.17 136.545C150.196 137.763 150.653 139.5 152.164 140.368C153.88 137.287 152.573 132.367 149.339 129.154C145.098 124.941 138.451 124.297 133.282 127.599C127.818 131.088 124.701 136.968 126.14 141.45C128.396 140.507 128.815 137.543 131.202 136.538C132.027 137.852 131.404 139.047 131.051 140.532Z" fill="#1F2E5C"/>
<path d="M194.827 144.495C194.337 148.699 192.937 152.534 194.021 156.582C194.782 159.422 196.136 161.864 199.193 162.275C202.065 162.661 203.809 160.458 205 158.203C207.483 153.499 208.645 148.468 207.688 142.565C210.941 144.233 212.052 146.729 212.903 149.402C213.212 150.375 213.359 151.398 213.662 152.373C213.873 153.048 214.295 153.602 215.14 153.513C215.793 153.445 216.089 152.956 216.341 152.431C218.108 148.752 215.245 139.913 211.309 136.9C207.819 134.229 202.25 134.733 198.301 138.06C196.372 139.685 195.457 141.858 194.827 144.495Z" fill="#1F2E5C"/>
<path d="M100.358 161.835C98.7676 157.894 98.1267 153.892 95.8746 150.496C94.3044 148.129 92.5569 145.941 90.2928 144.2C87.9426 142.392 85.2919 141.042 82.4993 142.77C79.5497 144.595 78.4545 147.613 78.3107 151.257C85.3375 147.961 86.3439 148.431 91.0249 156.815C90.9285 157.02 90.883 157.309 90.7187 157.415C87.4557 159.505 84.9864 162.035 85.9157 166.323C86.7149 170.011 91.2573 174.163 95.0689 174.778C96.003 174.929 97.0852 175.136 97.7123 174.294C98.49 173.249 97.7879 172.276 97.0781 171.467C96.0722 170.321 94.958 169.267 93.9679 168.108C93.3519 167.387 92.7985 166.494 93.5956 165.593C94.2387 164.866 95.1074 165.15 95.9005 165.437C96.2326 165.557 96.5491 165.725 96.8867 165.824C98.2705 166.23 99.7204 167.802 101.074 166.324C102.337 164.945 100.827 163.5 100.358 161.835Z" fill="#1F2E5C"/>
<path d="M124.267 122.918C134.764 119.471 144.568 120.959 154.106 125.608C155.341 126.21 156.757 127.07 157.971 125.847C159.265 124.542 158.693 122.886 157.907 121.565C154.016 115.023 148.281 111.247 140.854 110.979C133.529 110.714 127.675 113.997 123.617 120.378C123.059 121.255 122.017 122.402 124.267 122.918Z" fill="#1F2E5C"/>
<path d="M186.837 172.505C186.847 167.356 183.853 163.277 183.331 158.56C183.129 156.732 182.886 154.909 182.657 153.084C182.531 152.082 182.678 150.783 181.263 150.696C179.994 150.617 179.603 151.762 179.296 152.769C177.917 157.298 177.594 161.971 179.182 166.392C180.785 170.856 179.96 174.397 176.975 177.853C176.045 178.931 174.254 180.404 175.841 182.002C177.15 183.319 178.903 182.412 180.325 181.6C183.776 179.632 186.403 177.024 186.837 172.505Z" fill="#1F2E5C"/>
<rect width="69.2592" height="65.8275" transform="matrix(-0.976225 -0.21676 -0.21676 0.976225 323.979 211.55)" fill="white"/>
<path d="M277.779 277.778C281.472 274.174 309.897 281.736 309.897 276.083C309.897 270.431 242.49 260.186 242.49 260.186L237.223 284.562L275.842 294.1L274.604 288.797C274.604 288.797 274.087 281.382 277.779 277.778Z" fill="white" stroke="white"/>
<circle cx="19.748" cy="19.748" r="18.248" transform="matrix(-0.973512 -0.228638 -0.228638 0.973512 304.082 230.457)" fill="#E73B2F" stroke="#1F2E5C" stroke-width="3"/>
<mask id="path-15-inside-1_656_1503" fill="white">
<path d="M261.117 240.651C260.524 243.176 260.434 245.793 260.853 248.352C261.271 250.911 262.189 253.363 263.555 255.568C264.921 257.772 266.708 259.686 268.814 261.2C270.919 262.714 273.302 263.798 275.827 264.391C278.352 264.984 280.968 265.074 283.528 264.656C286.087 264.238 288.539 263.319 290.743 261.953C292.948 260.587 294.862 258.801 296.376 256.695C297.89 254.589 298.974 252.206 299.567 249.682L280.342 245.167L261.117 240.651Z"/>
</mask>
<path d="M261.117 240.651C260.524 243.176 260.434 245.793 260.853 248.352C261.271 250.911 262.189 253.363 263.555 255.568C264.921 257.772 266.708 259.686 268.814 261.2C270.919 262.714 273.302 263.798 275.827 264.391C278.352 264.984 280.968 265.074 283.528 264.656C286.087 264.238 288.539 263.319 290.743 261.953C292.948 260.587 294.862 258.801 296.376 256.695C297.89 254.589 298.974 252.206 299.567 249.682L280.342 245.167L261.117 240.651Z" fill="white" stroke="#1F2E5C" stroke-width="6" mask="url(#path-15-inside-1_656_1503)"/>
<circle cx="5.2877" cy="5.2877" r="3.7877" transform="matrix(-0.973512 -0.228638 -0.228638 0.973512 286.494 242.061)" fill="white" stroke="#1F2E5C" stroke-width="3"/>
<ellipse cx="4.3604" cy="6.78284" rx="4.3604" ry="6.78284" transform="matrix(-0.987664 -0.156587 -0.156587 0.987664 206.217 144.305)" fill="white"/>
<ellipse cx="4.3604" cy="6.78284" rx="4.3604" ry="6.78284" transform="matrix(-0.987664 -0.156587 -0.156587 0.987664 143.232 136.553)" fill="white"/>
<path d="M329.6 220.362L331.158 209.799L353.501 222.877L320.766 275.69L317.649 269.151L329.6 220.362Z" fill="white" stroke="white"/>
</svg>
