<svg width="493" height="491" viewBox="0 0 493 491" fill="none" xmlns="http://www.w3.org/2000/svg">
<mask id="mask0_977_21532" style="mask-type:alpha" maskUnits="userSpaceOnUse" x="0" y="0" width="493" height="491">
<rect width="493" height="491" fill="white"/>
</mask>
<g mask="url(#mask0_977_21532)">
<path d="M325.805 554.495C329.722 552.152 333.423 549.948 337.537 547.498C337.835 550.598 338.1 553.324 338.36 556.051C338.458 557.088 338.342 558.39 339.649 558.64C342.645 559.215 345.715 559.206 348.722 558.859C350.454 558.66 350.119 556.873 350.036 555.683C349.545 548.584 349.039 541.483 348.376 534.398C347.68 526.97 346.795 519.561 346.011 512.141C345.887 510.961 345.788 509.772 347.351 509.329C348.922 508.885 350.226 508.888 351.391 510.36C356.414 516.705 362.392 522.152 368.151 527.797C372.175 531.741 376.698 535.096 381.651 537.784C388.902 541.719 396.449 543.531 404.534 540.309C406.87 539.378 409.035 538.124 410.415 536.039C418.965 523.134 426.93 509.835 429.692 494.379C431.209 485.891 430.335 477.108 430.069 468.48C429.39 446.429 428.298 424.391 427.447 402.345C426.534 378.68 427.699 355.199 433.359 332.061C435.605 322.88 437.909 313.699 439.503 304.361C440.12 300.742 438.958 298.271 435.966 296.347C430.559 292.869 425.249 289.238 419.808 285.814C417.838 284.575 417.079 283.286 418.598 281.325C429.536 267.202 436.938 250.924 446.394 235.899C448.075 233.228 449.869 230.628 451.518 227.937C454.647 222.83 454.205 219.793 449.526 216.063C440.557 208.913 430.76 202.92 421.454 196.237C416.421 192.623 411.281 189.152 406.342 185.415C399.54 180.27 395.184 181.772 390.43 188.513C385.918 187.083 381.74 184.797 377.555 182.532C373.973 180.595 370.411 179.727 366.613 182.098C364.739 183.268 363.165 184.667 362.683 186.811C361.902 190.288 359.96 190.951 356.77 189.981C355.365 189.554 353.746 189.686 352.236 189.773C347.508 190.047 344.985 192.251 344.002 196.882C339.402 218.544 334.802 240.205 330.23 261.873C329.1 267.226 328.043 272.595 327.01 277.968C325.974 283.359 327.801 286.866 333.155 288.469C339.413 290.343 345.799 291.833 352.186 293.231C359.806 294.898 367.27 297.212 375.552 298.351C373.872 300.356 372.018 301.088 370.313 301.89C366.808 303.539 365.364 306.4 365.189 310.021C364.944 315.067 365.157 320.084 367.168 324.832C367.925 326.618 367.898 328.474 367.944 330.341C368.213 341.44 372.218 346.36 385.738 344.522C386.395 345.668 385.384 346.45 385.031 347.32C381.413 356.233 380.143 365.011 385.389 373.892C387.395 377.287 384.944 380.88 385.193 384.43C384.872 384.503 384.552 384.576 384.232 384.649C382.245 380.669 380.106 376.756 378.296 372.697C368.499 350.719 357.075 329.473 348.616 306.894C347.416 303.69 345.285 301.552 342.144 299.939C321.509 289.344 301.997 276.911 283.19 263.364C278.446 259.947 273.834 256.347 269.045 252.997C267.075 251.619 266.538 250.111 267.366 247.944C267.698 247.075 268.012 246.165 268.114 245.25C268.466 242.099 270.25 240.772 273.193 239.49C283.129 235.162 291.945 229.043 299.643 221.331C306.756 214.204 312.498 206.191 316.221 196.815C317.058 194.707 318.489 193.451 320.446 192.413C331.939 186.314 339.028 172.485 337.655 159.6C337.229 155.606 336.701 151.697 334.824 148.141C333.923 146.432 334.774 145.46 335.754 144.475C343.252 136.937 347.415 127.927 347.912 117.22C348.876 120.406 349.679 123.551 349.836 126.849C349.995 130.194 350.329 133.531 350.593 136.965C359.272 132.562 362.274 110.621 357.096 90.0881C359.688 89.5573 362.298 89.1212 364.855 88.4786C370.13 87.1533 375.064 85.0548 379.199 81.4282C380.373 80.3986 381.871 79.3808 381.22 77.039C367.405 76.1742 356.617 69.0365 346.317 59.6262C350.45 57.2933 354.269 55.5441 357.585 52.9697C361.292 50.0918 364.919 47.1501 367.624 43.2567C368.412 42.1235 369.565 40.9046 368.716 39.4634C367.894 38.0698 366.319 38.7685 365.161 38.9705C355.857 40.5933 346.734 39.89 337.823 36.8627C329.09 33.8959 320.471 30.6239 312.017 26.2143C317.38 20.4483 324.616 16.3007 326.633 7.16343C322.073 8.10182 318.373 8.8868 314.663 9.62207C303.01 11.9317 291.402 11.0611 279.81 9.09999C266.013 6.76579 252.209 5.69115 238.365 8.78176C232.329 10.129 226.664 12.5372 220.064 15.3405C223.013 11.5622 226.038 9.4242 229.034 7.27199C230.551 6.18203 232.199 5.27537 233.745 4.22298C234.723 3.55701 235.728 2.73836 235.325 1.3831C234.905 -0.0324044 233.546 -0.0719821 232.406 0.0384587C228.914 0.376566 225.426 0.784724 221.953 1.2791C204.968 3.69664 190.034 17.9324 187.928 33.6638C187.897 33.8953 187.837 34.1232 187.812 34.3551C187.23 39.73 187.231 39.7099 181.477 39.6971C178.674 39.6908 175.85 39.5426 173.108 40.3445C171.78 40.7327 170.343 40.9695 169.701 42.4966C170.082 43.9719 171.423 43.8941 172.482 44.1963C173.581 44.5099 174.796 44.4905 176.109 45.8655C152.497 62.1896 147.453 85.095 153.198 111.614C154.751 118.785 158.047 124.816 160.944 126.249C162.446 125.152 161.499 123.089 162.806 121.665C164.681 124.937 165.252 128.704 167.25 131.822C167.794 132.671 167.06 133.347 166.545 133.982C159.519 142.647 159.144 152.591 162.343 162.474C167.063 177.06 177.759 185.523 192.679 188.552C195.673 189.16 196.784 190.199 196.636 193.338C195.813 210.716 195.158 228.102 194.513 245.488C194.453 247.124 193.729 248.04 192.442 248.829C189.339 250.733 186.497 252.992 183.932 255.567C172.396 267.148 157.984 274.636 144.418 283.328C130.537 292.222 116.525 300.913 103.221 310.681C99.9663 313.071 98.1447 316.028 97.5431 319.922C95.0559 336.017 94.6164 352.202 95.2738 368.446C95.647 377.666 95.751 386.898 96.2267 396.112C97.1413 413.829 98.2596 431.533 100.351 449.163C100.851 453.377 102.978 456.072 107.005 457.238C112.166 458.732 117.317 460.422 122.782 460.199C125.095 460.105 125.913 461.132 126.681 463.206C133.094 480.529 135.198 498.768 138.208 516.801C140.338 529.56 142.071 542.388 143.785 555.212C144.172 558.106 145.469 558.881 148.136 558.877C170.135 558.848 192.134 558.925 214.134 558.902C217.409 558.898 220.588 558.225 223.735 557.139C240.963 551.19 258.483 546.076 275.347 539.091C279.21 537.492 283.004 535.727 286.912 534.209C274.213 542.541 259.251 546.362 245.438 554.327C247.957 555.312 249.53 554.851 250.944 554.231C257.6 551.315 264.511 549.124 271.435 546.991C283.199 543.366 293.275 536.394 304.038 530.791C313.171 526.037 321.893 520.566 330.694 515.235C331.776 514.579 332.855 513.823 334.204 513.803C336.661 517.543 336.161 521.334 332.759 524.238C326.386 529.677 319.152 533.724 311.531 537.108C297.317 543.42 283.079 549.677 268.863 555.985C267.65 556.524 266.202 556.806 265.132 558.722C269.147 559.184 272.593 558.38 275.951 557.424C286.349 554.462 295.999 549.721 305.656 544.947C315.157 540.249 323.987 534.638 331.925 527.612C333.027 526.637 334.093 525.479 336.099 525.121C336.401 530.151 336.878 535.091 337.394 540.017C337.614 542.116 335.382 543.242 333.782 544.434C327.911 548.809 322.064 553.216 315.761 557.947C320.28 559.217 322.663 556.133 325.805 554.495ZM318.489 50.2819C313.977 47.8119 310.24 44.2351 305.734 41.6862C296.174 36.2778 286.498 31.1076 276.659 26.237C267.757 21.8301 258.528 18.7612 248.374 19.4926C240.304 20.074 232.352 21.1618 224.732 24.0684C221.44 25.3242 218.082 26.4095 214.754 27.5722C221.183 22.6185 228.517 19.5185 236.237 17.8869C249.155 15.1569 262.243 15.5465 275.292 17.4309C284.178 18.7142 293.041 20.4432 302.104 19.1534C302.942 19.0341 303.955 18.7597 304.848 19.6841C299.62 24.3366 292.529 22.7165 286.552 24.9492C307.454 31.5766 325.419 45.12 347.452 48.0443C333.442 51.5886 321.368 44.9043 308.689 41.0938C311.31 45.2468 315.906 46.962 319.435 50.5236C323.041 52.4812 326.377 54.8519 329.569 57.4033C336.231 62.7292 342.721 68.2747 349.48 73.4722C352.438 75.7466 355.883 77.3886 359.479 79.5401C354.003 79.5257 348.126 77.8258 343.524 73.7673C335.21 66.4359 327.301 58.647 319.233 51.0384C319.079 50.893 319.05 50.6146 318.489 50.2819ZM154.023 320.721C161.437 335.086 167.631 349.952 172.668 365.31C171.186 363.851 170.157 362.163 168.968 360.596C160.258 349.127 151.276 337.953 139.163 329.712C131.53 324.52 123.169 321.535 114.115 320.344C112.248 320.098 110.027 319.413 108.405 321.428C109.598 323.057 111.253 323.049 112.638 323.473C125.823 327.507 136.855 334.872 146.371 344.739C155.273 353.968 162.12 364.72 169.547 375.062C174.182 381.518 179.17 387.596 180.081 395.948C180.685 401.489 183.19 406.618 184.902 412.921C157.343 409.698 131.759 414.042 108.255 427.833C107.296 426.718 107.255 425.785 107.171 424.856C105.366 404.851 104.639 384.79 104.28 364.721C104.033 350.946 104.244 337.166 105.431 323.412C105.71 320.187 107.311 318.495 109.829 316.869C127.996 305.136 145.935 293.052 164.293 281.61C170.414 277.796 176.338 273.667 182.225 269.766C183.565 270.468 183.758 271.587 184.29 272.464C184.835 273.362 185.33 274.29 185.887 275.179C195.398 290.37 207.094 303.666 221.047 314.902C232.85 324.406 245.676 332.108 261.182 333.524C269.616 334.295 276.908 331.902 282.138 324.286C287.986 315.773 289.939 306.466 289.853 296.434C289.8 290.392 289.284 284.414 287.491 278.625C288.928 278.269 289.551 278.897 290.199 279.352C305.528 290.106 321.221 300.234 338.55 307.567C339.651 308.033 340.057 308.985 340.334 310.018C341.918 315.908 344.302 321.49 346.88 326.997C357.627 349.946 367.301 373.407 379.652 395.592C380.092 396.382 380.774 397.154 379.837 398.82C364.513 400.899 350.966 408.526 337.606 417.404C337.749 412.389 337.665 408.069 342.025 405.485C340.502 404.108 339.403 405.962 338.014 404.798C338.154 399.625 336.847 393.874 339.074 388.836C343.127 379.667 346.755 370.247 352.198 361.733C352.575 361.143 352.991 360.531 351.756 359.219C346.184 362.75 344.178 369.122 340.399 374.116C342.149 362.233 344.984 350.593 345.642 338.643C343.612 338.196 343.07 339.419 342.633 340.64C342.004 342.397 341.414 344.173 340.925 345.973C339.686 350.527 338.513 355.098 337.313 359.662C336.43 344.982 334.878 330.591 331.131 315.949C328.567 317.839 329.287 319.617 329.305 321.121C329.521 339.234 328.913 357.34 328.85 375.446C328.757 402.681 327.06 429.853 326.451 457.063C326.384 460.053 325.449 462.776 324.512 465.551C323.835 467.559 322.696 468.589 320.55 468.897C311.535 470.188 302.506 471.421 293.543 473.019C283.518 474.807 274.574 472.432 265.497 468.076C255.297 463.181 246.305 456.503 236.688 450.766C230.918 447.324 224.998 444.244 218.379 442.55C225.588 448.385 233.221 453.539 241.408 457.96C238.377 458.183 235.688 457.054 232.921 456.354C228.389 455.206 223.876 453.986 219.349 452.816C217.277 452.28 215.54 452.837 214.682 454.847C213.941 456.584 215.022 457.825 216.5 458.517C225.486 462.727 234.61 466.564 244.373 468.666C250.089 469.896 255.779 471.244 261.48 472.54C261.416 472.925 261.353 473.311 261.289 473.697C251.473 472.908 241.283 476.425 231.932 470.596C228.638 475.721 223.371 473.38 218.962 473.679C214.219 474 209.568 474.965 204.826 475.653C200.426 461.285 196.081 447.368 192.339 433.27C191.83 431.352 192.313 430.249 194.063 429.305C197.297 427.562 198.155 424.841 197.184 421.286C195.395 414.742 193.309 408.313 190.583 402.094C189.364 399.314 188.31 396.562 188.578 393.349C189.856 378.064 189.652 362.769 188.311 347.501C188.062 344.656 188.117 341.54 185.486 339.105C183.121 349.774 183.262 360.602 183.027 371.416C179.971 360.058 175.265 349.375 170.5 338.718C167.429 331.849 163.721 325.375 158.3 320.039C156.438 318.207 154.356 316.71 150.824 316.429C152.111 318.131 152.931 319.216 154.023 320.721ZM180.61 491.351C181.17 493.447 182.763 493.244 184.267 492.848C187.09 492.104 189.943 491.396 192.664 490.36C210.019 483.752 228.073 482.117 246.438 482.733C271.018 483.559 295.516 483.408 319.682 477.873C324.521 476.765 328.266 475.625 331.13 470.404C338.838 456.356 351.241 446.968 365.55 440.052C366.654 439.519 367.751 438.653 369.527 439.526C368.034 443.659 366.68 447.852 365.019 451.921C359.467 465.519 356.31 479.502 358.016 494.269C358.332 497.007 357.183 498.005 354.702 498.492C347.019 500.001 339.364 501.665 331.906 504.094C305.79 512.6 279.391 520.189 252.766 526.863C230.123 532.538 207.176 537.015 184.032 540.254C171.28 542.039 169.159 540.855 163.458 529.194C152.819 507.43 145.898 484.181 136.709 461.835C136.109 460.375 136.442 459.336 137.662 458.159C150.379 445.897 166.111 439.306 182.982 434.005C187.744 448.905 191.019 464.31 197.184 478.889C191.225 482.398 185.398 485.835 180.61 491.351ZM320.805 127.748C320.457 131.466 320.169 135.19 319.749 138.899C318.621 148.869 316.279 158.625 314.388 168.459C312.694 177.275 311.255 186.219 307.656 194.489C300.158 211.719 286.841 223.198 270.169 231.18C263.239 234.498 256.09 234.891 249.092 231.932C229.421 223.615 215.261 209.335 205.489 190.573C203.521 186.795 202.089 182.739 200.36 178.694C198.512 179.388 197.5 180.889 195.395 180.521C181.198 178.036 171.207 168.302 169.14 154.084C168.143 147.223 169.434 140.779 175.09 135.923C179.107 132.475 182.693 132.488 186.627 136.09C189.47 138.692 190.932 142.179 192.333 145.639C194.723 151.541 197.707 157.052 202.148 161.689C203.003 162.581 203.651 163.829 205.66 163.527C202.385 149.944 203.135 136.366 204.852 121.853C207.77 125.346 207.704 129.504 211.682 132.191C210.94 118.374 216.244 106.655 218.129 94.1258C223.803 99.9428 228.45 106.298 237.045 108.041C236.846 105.119 234.616 103.798 234.362 101.402C240.964 108.685 248.936 114.026 257.638 118.33C266.393 122.66 275.42 125.989 285.552 125.685C281.087 120.783 276.094 116.6 272.088 111.407C280.449 115.552 289.545 117.313 298.376 120.481C293.384 123.028 288.779 125.412 287.953 132.751C298.548 127.841 308.213 130.888 317.921 134.398C318.124 130.869 316.893 128.55 315.19 127.236C309.811 123.086 306.697 116.916 301.533 112.638C299.542 110.989 297.48 109.41 295.426 106.421C301.418 109.525 306.459 112.201 311.893 114.099C320.837 117.222 320.796 117.339 320.805 127.748ZM396.815 376.954C391.933 371.908 390.003 365.875 391.02 358.971C391.812 353.597 393.599 348.506 396.599 343.973C397.936 341.954 397.695 340.391 396.593 338.524C393.978 334.096 389.831 331.795 385.134 330.439C381.939 329.517 380.044 331.646 381.321 334.715C382.412 337.335 380.882 337.594 379.12 337.645C377.017 337.706 376.035 336.387 375.676 334.402C374.748 329.275 376.721 325.419 380.462 321.994C384.001 318.754 387.657 317.519 392.293 319.301C397.519 321.31 402.694 323.586 408.373 324.068C409.575 324.17 411.171 324.614 411.633 322.9C412.059 321.322 410.731 320.654 409.581 320.048C405.029 317.65 400.237 315.709 395.701 313.327C389.508 310.074 384.123 310.861 378.68 314.781C376.982 316.003 375.45 317.822 372.976 317.86C371.567 314.517 373.137 312.254 375.402 310.407C379.837 306.789 384.378 303.301 388.897 299.788C390.8 298.309 392.782 298.641 394.846 299.553C400.405 302.01 405.971 304.452 411.583 306.782C415.953 308.596 420.443 310.027 425.431 310.269C425.042 308.413 423.768 307.898 422.801 307.138C415.759 301.608 407.689 297.884 399.765 293.86C396.385 292.144 393.121 291.215 389.368 291.606C383.903 292.175 379.48 289.422 375.073 286.779C374.403 286.377 373.895 285.609 374.663 284.04C383.048 284.62 391.689 282.33 400.4 284.183C401.301 284.375 402.216 284.731 402.998 285.215C411.642 290.566 420.251 295.977 428.897 301.326C430.913 302.574 431.181 304.099 430.731 306.379C430.133 309.406 428.288 311.931 427.69 314.863C424.522 330.398 421.917 346.033 419.936 361.763C418.561 372.68 418.886 383.645 419.027 394.63C419.258 412.732 418.932 430.852 420.038 448.924C420.616 458.371 420.344 467.83 421.118 477.269C421.799 485.578 421.339 493.896 418.022 501.693C414.5 509.97 410.469 518.02 405.885 525.775C402.8 530.995 400.25 532.197 394.212 530.933C382.937 528.572 375.629 521.17 371.224 511.137C365.071 497.126 365.978 482.375 370.121 468.218C378.214 440.561 387.927 413.375 393.95 385.123C394.115 384.351 394.268 383.478 395.588 383.094C396.938 383.616 398.568 384.231 400.186 384.876C401.221 385.288 402.263 385.591 402.982 384.431C403.728 383.228 402.914 382.467 402.028 381.814C400.237 380.494 398.453 379.17 396.815 376.954ZM248.081 305.264C242.06 301.756 235.774 298.674 230.025 294.201C236.878 294.724 242.563 298.056 248.593 300.225C249.379 298.213 248.587 297.04 247.788 295.884C245.067 291.945 241.44 289.397 236.618 288.744C232.912 288.241 229.205 287.722 225.486 287.334C223.757 287.153 222.325 286.545 221.163 285.293C214.164 277.748 207.315 270.08 201.853 261.303C201.184 260.228 200.567 259.221 200.842 257.745C202.962 246.359 203.595 234.828 204.05 223.282C204.097 222.089 203.705 220.714 204.962 219.796C206.158 220.385 206.552 221.537 207.156 222.507C214.644 234.536 224.012 244.867 235.267 253.478C241.606 258.328 248.44 261.525 256.733 259.455C257.283 259.317 257.895 259.214 258.603 259.999C258.254 265.064 257.902 270.381 257.517 275.697C257.135 280.976 257.754 281.513 263.138 280.355C262.944 277.832 262.971 275.311 264.573 273.044C266.139 274.044 266.862 275.516 267.59 276.964C271.278 284.293 271.101 284.803 264.515 289.258C262.688 290.494 260.504 291.616 260.227 294.313C262.755 295.371 264.73 294.004 266.826 293.473C269.317 292.842 270.704 293.509 270.304 296.401C269.821 299.893 269.089 303.325 267.361 306.416C265.747 309.302 263.5 310.768 259.839 310.031C255.742 309.205 252.018 307.734 248.081 305.264ZM365.318 249.914C366.889 251.182 368.46 252.451 370.632 254.204C362.81 254.208 356.992 256.473 353.702 263.531C350.242 260.844 348.18 257.684 348.096 254.068C347.82 242.331 349.78 231.468 359.759 223.292C369.918 214.969 389.004 213.34 398.009 227.455C405.114 238.593 403.005 256.989 392.949 265.648C391.474 266.918 390.019 268.323 387.661 268.708C386.364 266.148 385.024 263.59 383.764 260.992C382.393 258.165 379.572 257.04 376.763 255.39C379.267 254.709 381.301 254.192 383.313 253.601C389.428 251.805 392.498 247.368 393.356 241.376C394.237 235.229 393.401 229.293 388.289 225.097C381.504 219.527 369.95 220.203 364.437 226.138C358.534 232.493 358.753 242.678 365.318 249.914ZM240.364 318.599C218.605 305.696 202.248 287.623 189.679 265.893C188.009 263.006 189.408 261.982 191.867 261.128C192.265 261.625 192.61 261.951 192.83 262.347C200.578 276.303 210.867 288.153 222.842 298.626C232.545 307.112 243.186 314.008 255.722 317.465C265.791 320.241 272.969 316.347 276.337 306.495C280.19 295.225 279.865 284.015 275.371 272.95C274.974 271.972 274.101 271.034 274.704 269.86C275.597 269.873 276.006 270.329 276.247 270.846C282.644 284.536 284.843 298.738 280.413 313.384C277.799 322.029 269.185 329.302 257.421 325.398C251.763 323.52 246.014 321.893 240.364 318.599ZM115.171 432.153C118.362 430.716 121.499 429.143 124.753 427.864C142.996 420.695 162.192 418.262 181.541 416.661C186.107 416.283 186.483 416.693 186.949 421.374C159.862 424.306 133.139 428.526 109.587 443.797C107.453 436.005 107.476 435.952 114.392 432.552C114.497 432.501 114.599 432.443 115.171 432.153ZM348.653 211.327C349.135 208.452 349.579 205.57 350.108 202.703C351.054 197.577 352.972 196.499 357.942 197.765C369.591 200.732 381.286 203.519 392.937 206.479C397.053 207.524 401.366 207.981 405.241 209.855C404.755 212.157 403.503 212.02 401.971 211.643C393.927 209.659 385.891 207.631 377.805 205.827C371.56 204.433 365.357 202.826 359.146 201.329C356.274 200.637 354.021 199.561 352.112 202.262C350.291 204.839 350.243 207.509 353.463 209.804C351.419 210.504 350.971 211.992 350.633 213.61C349.156 220.684 347.748 227.775 346.098 234.809C343.337 246.587 342.816 258.917 337.476 270.128C338.91 270.831 340.334 269.345 341.836 269.968C336.825 272.444 335.236 274.621 336.788 277.889C338.853 282.235 341.872 282.254 345.078 278.632C344.968 279.856 343.751 280.58 344.349 281.75C351.368 282.995 358.356 284.274 365.361 285.452C367.405 285.796 368.47 286.686 368.29 288.718C367.462 289.344 366.757 289.134 366.087 288.977C357.115 286.868 348.117 284.862 339.19 282.575C334.937 281.485 333.833 278.886 335.036 274.459C335.798 271.654 336.608 268.851 337.155 266.002C340.627 247.906 344.49 229.893 348.653 211.327ZM405.925 231.231C405.583 231.754 405.751 232.611 404.772 232.864C400.516 222.79 393.71 215.609 382.413 213.803C371.431 212.047 362.123 215.862 353.808 223.572C352.995 219.698 353.704 216.872 354.313 214.038C354.477 213.275 354.903 212.765 355.676 212.636C358.766 212.121 360.619 210.126 361.783 207.417C362.352 206.094 363.041 205.759 364.486 206.113C376.155 208.971 387.838 211.77 399.534 214.515C401.644 215.01 402.961 215.715 402.421 218.259C402.032 220.092 402.743 221.911 404.239 222.936C407.362 225.074 407.565 227.69 405.925 231.231ZM425.222 243.876C420.524 251.496 416.36 259.414 412.081 267.309C414.754 250.797 420.52 235.084 423.423 218.742C426.277 218.985 426.794 220.157 426.643 222.156C426.405 225.303 427.22 228.179 429.719 230.359C431.57 231.973 431.432 233.737 430.22 235.663C428.604 238.231 427.051 240.837 425.222 243.876ZM398.948 192.845C397.737 191.118 398.802 190.762 400.205 191.03C401.071 191.195 401.831 191.9 402.644 192.351C407.986 195.315 412.401 199.523 417.269 203.121C424.968 208.811 432.995 214.058 440.817 219.585C445.234 222.705 445.319 223.63 442.474 228.095C436.007 238.244 429.932 248.615 424.46 259.342C421.925 264.311 418.622 268.808 415.022 273.115C417.17 268.243 419.493 263.471 422.027 258.813C427.773 248.255 433.602 237.741 439.446 227.236C440.814 224.776 441.383 222.518 439.082 220.258C436.541 217.763 434.18 218.342 431.899 220.858C431.345 218.971 433.35 217.782 432.333 216.157C430.715 215.316 428.928 215.798 427.208 215.743C425.591 215.691 424.476 215.351 424.507 213.413C424.578 208.995 421.912 206.612 418.118 205.203C416.001 204.417 414.069 203.317 412.394 201.863C408.394 198.391 403.94 195.626 398.948 192.845ZM345.251 419.976C355.945 413.363 367.145 407.957 379.67 404.922C379.839 408.553 379.074 410.819 375.697 411.48C374.574 411.7 373.52 412.304 372.45 412.767C360.234 418.057 348.507 424.209 338.161 432.549C336.533 426.394 339.068 422.602 344.512 420.414C344.618 420.371 344.711 420.294 345.251 419.976ZM348.696 276.338C349.035 273.522 348.344 271.086 346.373 268.935C342.999 265.256 342.998 263.235 346.138 259.136C348.968 263.286 351.454 267.628 355.469 270.871C359.408 274.051 363.96 275.97 368.484 277.608C368.197 280.829 366.87 282.116 364.036 281.631C359.676 280.883 355.305 280.2 350.939 279.484C349.497 279.247 348.553 278.558 348.696 276.338ZM414.725 219.259C415.005 217.132 415.172 214.919 413.309 213.438C410.733 211.39 408.221 212.963 405.585 214.453C406.984 210.427 408.053 209.85 411.364 210.936C415.398 212.26 416.78 214.385 416.145 218.604C415.904 220.206 415.311 221.752 414.932 223.336C411.026 239.646 406 255.687 403.11 272.241C402.767 274.208 402.29 275.896 399.267 275.305C403.381 257.965 407.456 240.792 411.537 223.593C410.361 223.107 409.409 222.714 408.457 222.32C410.978 222.337 412.951 221.593 414.725 219.259ZM306.933 56.8175C307.286 57.292 308.269 57.2835 308.099 58.1377C289.826 48.0713 269.938 42.8015 249.822 38.1833C270.59 38.6721 289.4 45.1253 306.933 56.8175ZM321.62 181.221C319.802 181.302 320.65 180.016 320.788 179.356C322.354 171.86 323.946 164.369 325.648 156.903C325.903 155.786 325.874 154.308 327.32 153.718C332.172 160.592 329.691 173.126 321.62 181.221ZM170.238 65.59C165.447 69.5667 163.234 75.1928 160.63 80.5541C164.771 68.5651 170.8 58.0321 182.874 52.1449C176.731 59.9085 173.273 68.8354 171.044 78.3511C171.31 74.7332 171.807 71.1693 172.234 67.5969C172.369 66.4659 173.144 64.7293 170.238 65.59ZM352.446 104.734C352.44 104.967 352.476 105.212 352.414 105.429C352.365 105.6 352.194 105.736 351.967 106.031C349.069 100.36 346.362 94.6977 343.322 89.2191C340.266 83.7098 336.004 79.0008 332.355 73.8854C344.044 80.7471 350.223 91.2188 352.446 104.734ZM378.974 195.423C375.791 194.462 372.345 194.321 369.406 192.592C369.666 189.273 371.009 188.21 374.041 189.598C377.122 191.009 380.275 192.265 383.417 193.536C388.468 195.58 393.536 197.582 398.596 199.601C391.876 199.64 385.838 197.031 378.974 195.423ZM255.775 70.3609C253.709 69.2851 251.61 68.2669 249.586 67.1172C247.562 65.9675 245.578 64.7374 243.641 63.4478C241.829 62.2424 240.101 60.9127 238.336 59.6377C250.225 64.0807 271.879 76.7723 275.851 81.0585C269.144 77.4739 262.696 74.0283 255.775 70.3609ZM361.819 434.305C356.52 436.556 351.596 439.525 346.626 442.411C354.263 435.037 363.327 430.121 373.274 426.147C373.303 429.457 371.778 430.921 369.261 431.691C366.918 432.409 364.619 433.27 361.819 434.305ZM395.475 273.021C393.089 276.267 389.86 276.948 384.728 275.065C389.378 273.087 393.135 270.221 396.876 266.701C397.017 269.123 396.282 270.819 395.475 273.021ZM203.56 23.158C202.495 24.4417 201.429 25.7254 200.364 27.0091C202.729 22.034 205.906 17.7798 210.603 14.8586C208.84 17.917 206.239 20.2456 203.56 23.158ZM259.243 54.2821C263.342 55.9408 267.44 57.5995 271.538 59.2582C265.562 57.547 259.744 55.5056 254.062 53.0251C255.613 53.4 257.165 53.7749 259.243 54.2821ZM278.183 37.9328C277.751 37.7747 277.32 37.6166 276.888 37.4585C280.551 37.7484 284.066 38.5725 287.29 40.4793C284.396 39.6868 281.501 38.8943 278.183 37.9328ZM289.501 87.769C290.287 88.1783 291.072 88.5877 291.858 88.997C291.771 89.1661 291.683 89.3352 291.596 89.5043C288.622 88.0118 285.648 86.5194 282.674 85.0269C282.752 84.8672 282.83 84.7076 282.909 84.548C284.962 85.5522 287.015 86.5565 289.501 87.769ZM181.523 67.7159C182.111 66.4643 182.699 65.2127 183.286 63.961C182.963 66.9749 181.888 69.5775 179.717 71.6109C180.248 70.46 180.779 69.3091 181.523 67.7159Z" fill="#1F2E5C"/>
<path d="M137.237 370.98C133.391 370.189 129.855 369.285 126.007 369.131C128.585 372.974 171.089 390.414 175.425 389.494C174.951 386.911 172.329 387.125 170.84 385.933C172.533 380.996 154.353 360.287 146.327 358.522C150.803 366.781 158.413 371.886 164.69 379.033C157.702 377.368 151.478 376.337 145.78 373.473C143.2 372.176 140.372 371.526 137.237 370.98Z" fill="#1F2E5C"/>
<path d="M251.684 399.64C246.52 398.17 241.637 396.757 236.754 395.343C236.66 395.652 236.565 395.961 236.47 396.269C257.497 406.907 278.459 417.722 302.36 420.536C286.037 412.396 269.669 404.387 251.684 399.64Z" fill="#1F2E5C"/>
<path d="M254.931 346.844C260.353 349.43 265.323 352.498 271.354 352.708C262.889 347.274 253.976 342.841 244.222 340.111C247.176 343.214 251.008 344.856 254.931 346.844Z" fill="#1F2E5C"/>
<path d="M266.12 340.537C264.86 340.363 263.858 340.25 262.632 340.111C265.784 343.645 278.259 346.402 282.012 344.126C276.575 342.676 271.298 342.257 266.12 340.537Z" fill="#1F2E5C"/>
<path d="M251.409 196.369C258.404 198.861 265.668 200.378 273.026 201.678C271.49 206.015 265.892 208.667 259.373 208.515C250.935 208.318 239.253 199.813 236.77 191.492C241.74 193.146 246.312 194.668 251.409 196.369Z" fill="#1F2E5C"/>
<path d="M225.259 140.032C224.982 143.578 224.931 146.792 226.377 149.83C228.832 154.991 232.989 155.509 236.406 150.994C239.127 147.399 239.695 143.161 239.546 138.759C239.49 137.11 239.323 135.465 239.202 133.754C241.277 133.494 242.328 134.801 243.377 136.046C244.403 137.263 244.86 139.001 246.371 139.868C248.087 136.787 246.78 131.867 243.546 128.654C239.305 124.441 232.659 123.797 227.49 127.099C222.026 130.588 218.909 136.468 220.348 140.95C222.603 140.007 223.022 137.043 225.41 136.038C226.234 137.352 225.611 138.547 225.259 140.032Z" fill="#1F2E5C"/>
<path d="M289.034 143.994C288.544 148.198 287.144 152.034 288.228 156.082C288.989 158.922 290.343 161.363 293.4 161.775C296.272 162.161 298.016 159.958 299.207 157.703C301.69 152.999 302.852 147.968 301.895 142.065C305.148 143.733 306.259 146.229 307.11 148.902C307.419 149.875 307.566 150.898 307.869 151.873C308.08 152.548 308.502 153.102 309.347 153.013C310 152.945 310.296 152.456 310.548 151.93C312.316 148.252 309.452 139.413 305.516 136.4C302.026 133.729 296.457 134.233 292.508 137.56C290.579 139.185 289.664 141.358 289.034 143.994Z" fill="#1F2E5C"/>
<path d="M194.565 161.335C192.975 157.394 192.334 153.392 190.082 149.997C188.512 147.629 186.764 145.441 184.5 143.7C182.15 141.893 179.499 140.542 176.707 142.27C173.757 144.095 172.662 147.113 172.518 150.757C179.545 147.461 180.551 147.931 185.232 156.315C185.136 156.521 185.09 156.809 184.926 156.915C181.663 159.005 179.194 161.535 180.123 165.823C180.922 169.511 185.465 173.663 189.276 174.278C190.21 174.429 191.292 174.636 191.92 173.794C192.697 172.749 191.995 171.777 191.285 170.968C190.279 169.821 189.165 168.768 188.175 167.609C187.559 166.887 187.006 165.995 187.803 165.093C188.446 164.366 189.315 164.65 190.108 164.937C190.44 165.057 190.756 165.225 191.094 165.324C192.478 165.73 193.928 167.303 195.281 165.824C196.544 164.445 195.034 163 194.565 161.335Z" fill="#1F2E5C"/>
<path d="M218.474 122.418C228.972 118.971 238.775 120.459 248.313 125.108C249.548 125.71 250.964 126.57 252.178 125.347C253.472 124.042 252.9 122.386 252.114 121.065C248.223 114.523 242.488 110.747 235.061 110.479C227.736 110.214 221.882 113.497 217.824 119.878C217.266 120.755 216.224 121.902 218.474 122.418Z" fill="#1F2E5C"/>
<path d="M281.044 172.006C281.054 166.856 278.06 162.777 277.538 158.06C277.336 156.232 277.093 154.409 276.864 152.584C276.738 151.582 276.885 150.283 275.47 150.196C274.201 150.117 273.81 151.263 273.503 152.269C272.124 156.798 271.802 161.471 273.389 165.892C274.993 170.356 274.167 173.897 271.182 177.353C270.252 178.431 268.461 179.904 270.049 181.502C271.357 182.819 273.11 181.912 274.533 181.101C277.984 179.132 280.611 176.524 281.044 172.006Z" fill="#1F2E5C"/>
<rect width="69.2592" height="65.8275" transform="matrix(-0.976225 -0.21676 -0.21676 0.976225 418.186 211.05)" fill="white"/>
<path d="M371.986 277.278C375.678 273.674 404.104 281.236 404.104 275.583C404.104 269.931 336.696 259.686 336.696 259.686L331.43 284.062L370.049 293.6L368.81 288.297C368.81 288.297 368.293 280.882 371.986 277.278Z" fill="white" stroke="white"/>
<circle cx="19.748" cy="19.748" r="18.248" transform="matrix(-0.973512 -0.228638 -0.228638 0.973512 398.289 229.957)" fill="#E73B2F" stroke="#1F2E5C" stroke-width="3"/>
<mask id="path-16-inside-1_977_21532" fill="white">
<path d="M355.324 240.151C354.731 242.676 354.641 245.292 355.06 247.852C355.478 250.411 356.396 252.863 357.762 255.068C359.128 257.272 360.915 259.186 363.021 260.7C365.126 262.214 367.509 263.298 370.034 263.891C372.559 264.484 375.175 264.574 377.735 264.156C380.294 263.737 382.746 262.819 384.95 261.453C387.155 260.087 389.069 258.3 390.583 256.195C392.097 254.089 393.181 251.706 393.774 249.181L374.549 244.666L355.324 240.151Z"/>
</mask>
<path d="M355.324 240.151C354.731 242.676 354.641 245.292 355.06 247.852C355.478 250.411 356.396 252.863 357.762 255.068C359.128 257.272 360.915 259.186 363.021 260.7C365.126 262.214 367.509 263.298 370.034 263.891C372.559 264.484 375.175 264.574 377.735 264.156C380.294 263.737 382.746 262.819 384.95 261.453C387.155 260.087 389.069 258.3 390.583 256.195C392.097 254.089 393.181 251.706 393.774 249.181L374.549 244.666L355.324 240.151Z" fill="white" stroke="#1F2E5C" stroke-width="6" mask="url(#path-16-inside-1_977_21532)"/>
<circle cx="5.2877" cy="5.2877" r="3.7877" transform="matrix(-0.973512 -0.228638 -0.228638 0.973512 380.701 241.562)" fill="white" stroke="#1F2E5C" stroke-width="3"/>
<ellipse cx="4.3604" cy="6.78284" rx="4.3604" ry="6.78284" transform="matrix(-0.987664 -0.156587 -0.156587 0.987664 300.424 143.805)" fill="white"/>
<ellipse cx="4.3604" cy="6.78284" rx="4.3604" ry="6.78284" transform="matrix(-0.987664 -0.156587 -0.156587 0.987664 237.439 136.053)" fill="white"/>
<path d="M423.807 219.862L425.365 209.299L447.708 222.377L414.973 275.19L411.856 268.651L423.807 219.862Z" fill="white" stroke="white"/>
</g>
</svg>
