<svg width="40" height="38" viewBox="0 0 40 38" fill="none" xmlns="http://www.w3.org/2000/svg">
<path d="M18.3004 2.49891C18.8109 1.35948 19.0663 0.789762 19.4218 0.614321C19.7305 0.461893 20.093 0.461893 20.4018 0.614321C20.7573 0.789762 21.0126 1.35948 21.5231 2.49891L25.5896 11.5747C25.7407 11.9115 25.8161 12.0799 25.933 12.2089C26.0362 12.323 26.1625 12.4143 26.3034 12.4768C26.4629 12.5474 26.6472 12.5668 27.016 12.6055L36.949 13.6484C38.1961 13.7794 38.8195 13.8448 39.0972 14.1269C39.3382 14.372 39.4502 14.7151 39.3999 15.0543C39.3422 15.4448 38.8764 15.8623 37.9449 16.6975L30.5249 23.3497C30.2497 23.5965 30.1119 23.72 30.0248 23.8703C29.9476 24.0034 29.8993 24.1511 29.8832 24.3038C29.8649 24.4764 29.9033 24.6568 29.9802 25.0176L32.0527 34.7379C32.3129 35.9583 32.4431 36.5684 32.2591 36.9181C32.0993 37.2222 31.806 37.4341 31.4661 37.4913C31.0749 37.5572 30.5318 37.2456 29.4455 36.6224L20.7932 31.6577C20.4721 31.4734 20.3116 31.3815 20.1409 31.3453C19.9898 31.3135 19.8337 31.3135 19.6826 31.3453C19.512 31.3815 19.3514 31.4734 19.0303 31.6577L10.3781 36.6224C9.29185 37.2456 8.74872 37.5572 8.35748 37.4913C8.01763 37.4341 7.72425 37.2222 7.5645 36.9181C7.38061 36.5684 7.51069 35.9583 7.77089 34.7379L9.84329 25.0176C9.92021 24.6568 9.95867 24.4764 9.94041 24.3038C9.92424 24.1511 9.87601 24.0034 9.79883 23.8703C9.71161 23.72 9.57392 23.5965 9.29855 23.3497L1.87875 16.6975C0.947229 15.8623 0.48146 15.4448 0.42355 15.0543C0.37327 14.7151 0.485319 14.372 0.72644 14.1269C1.00404 13.8448 1.62757 13.7794 2.87463 13.6484L12.8077 12.6055C13.1764 12.5668 13.3607 12.5474 13.5201 12.4768C13.6611 12.4143 13.7874 12.323 13.8907 12.2089C14.0075 12.0799 14.0829 11.9115 14.2339 11.5747L18.3004 2.49891Z" fill="white"/>
</svg>
