<svg width="33" height="32" viewBox="0 0 33 32" fill="none" xmlns="http://www.w3.org/2000/svg">
<path d="M1.45117 14.3332C1.45117 8.04788 1.45117 4.90522 3.40377 2.9526C5.35639 1 8.49905 1 14.7844 1H18.1177C24.403 1 27.5458 1 29.4983 2.9526C31.4509 4.90522 31.4509 8.04788 31.4509 14.3332V17.6665C31.4509 23.9518 31.4509 27.0946 29.4983 29.0471C27.5458 30.9998 24.403 30.9998 18.1177 30.9998H14.7844C8.49905 30.9998 5.35639 30.9998 3.40377 29.0471C1.45117 27.0946 1.45117 23.9518 1.45117 17.6665V14.3332Z" stroke="white" stroke-width="2"/>
<path d="M15.0956 15.5166C12.3698 15.5166 10.1602 17.6829 10.1602 20.3552C10.1602 23.0276 12.3698 25.1939 15.0956 25.1939C17.8214 25.1939 20.031 23.0276 20.031 20.3552V5.83923C20.5794 7.45212 22.6633 10.6779 26.6116 10.6779" stroke="white" stroke-width="2" stroke-linecap="round" stroke-linejoin="round"/>
</svg>
