<svg width="28" height="27" viewBox="0 0 28 27" fill="none" xmlns="http://www.w3.org/2000/svg">
<circle cx="14.0227" cy="13.5" r="13.5" fill="white"/>
<path d="M14.4008 5.01417C15.3432 5 16.2786 5.00737 17.2134 5C17.2445 6.15144 17.7189 7.18779 18.4735 7.95541L18.4724 7.95428C19.2846 8.67485 20.3415 9.142 21.5066 9.22137L21.5227 9.2225V12.0776C20.4221 12.0504 19.3871 11.8003 18.4539 11.3706L18.5012 11.3899C18.0498 11.1761 17.6682 10.9567 17.3055 10.7118L17.3355 10.7311C17.3286 12.7998 17.3424 14.8686 17.3211 16.9299C17.2618 17.9805 16.9072 18.9386 16.3385 19.7385L16.35 19.7209C15.399 21.0623 13.8586 21.9427 12.1069 21.9949H12.0988C12.028 21.9983 11.9446 22 11.8605 22C10.8647 22 9.93385 21.7267 9.14061 21.2522L9.16364 21.2653C7.71992 20.4098 6.72406 18.9459 6.53985 17.2434L6.53755 17.2202C6.52316 16.8659 6.51625 16.5115 6.53064 16.1646C6.81271 13.4552 9.11759 11.3593 11.9192 11.3593C12.2341 11.3593 12.5427 11.3859 12.8426 11.4364L12.8103 11.4318C12.8247 12.4801 12.7816 13.5289 12.7816 14.5772C12.5381 14.4904 12.2571 14.44 11.9641 14.44C10.8888 14.44 9.97414 15.1169 9.63567 16.062L9.63049 16.079C9.55392 16.321 9.5096 16.5994 9.5096 16.8874C9.5096 17.0042 9.51708 17.1199 9.5309 17.2332L9.52975 17.2196C9.72086 18.3796 10.7305 19.2549 11.948 19.2549C11.9831 19.2549 12.0177 19.2544 12.0522 19.2527H12.047C12.8892 19.2277 13.6203 18.7815 14.0336 18.1222L14.0393 18.112C14.193 17.9011 14.2984 17.646 14.3335 17.3687L14.3341 17.3608C14.406 16.0926 14.3772 14.8317 14.3842 13.5635C14.3911 10.7084 14.3772 7.86017 14.3985 5.01247L14.4008 5.01417Z" fill="#E73A2D"/>
</svg>
